<?xml version="1.0" encoding="UTF-8"?>
<svg width="41px" height="41px" viewBox="0 0 41 41" version="1.1" xmlns="http://www.w3.org/2000/svg" xmlns:xlink="http://www.w3.org/1999/xlink">
    <title>Group 2</title>
    <g id="Web-App" stroke="none" stroke-width="1" fill="none" fill-rule="evenodd">
        <g id="dashboard/give" transform="translate(-12.000000, -338.000000)" fill="#000000" fill-rule="nonzero">
            <g id="guarantee" transform="translate(0.000000, 328.000000)">
                <g id="Group-3">
                    <g id="Group-2" transform="translate(12.000000, 10.500000)">
                        <path d="M20,3.90625 C20.4314062,3.90625 20.78125,3.55648437 20.78125,3.125 L20.78125,0.78125 C20.78125,0.349765625 20.4314062,0 20,0 C19.5685938,0 19.21875,0.349765625 19.21875,0.78125 L19.21875,3.125 C19.21875,3.55648437 19.5685938,3.90625 20,3.90625 Z" id="Path"></path>
                        <path d="M36.40625,20.78125 L39.21875,20.78125 C39.6501563,20.78125 40,20.4314844 40,20 C40,19.5685156 39.6501563,19.21875 39.21875,19.21875 L36.40625,19.21875 C35.9748437,19.21875 35.625,19.5685156 35.625,20 C35.625,20.4314844 35.9748437,20.78125 36.40625,20.78125 Z" id="Path"></path>
                        <path d="M0.78125,20.78125 L3.59375,20.78125 C4.02515625,20.78125 4.375,20.4314844 4.375,20 C4.375,19.5685156 4.02515625,19.21875 3.59375,19.21875 L0.78125,19.21875 C0.34984375,19.21875 0,19.5685156 0,20 C0,20.4314844 0.34984375,20.78125 0.78125,20.78125 Z" id="Path"></path>
                        <path d="M32.1532813,8.48289063 L33.8110938,6.82507813 C34.1161719,6.52 34.1161719,6.0253125 33.8110938,5.72015625 C33.5059375,5.41507813 33.0114063,5.41507813 32.7061719,5.72015625 L31.0483594,7.37796875 C30.7432813,7.68304688 30.7432813,8.17773438 31.0483594,8.48289063 C31.3535156,8.78796875 31.8480469,8.78796875 32.1532813,8.48289063 Z" id="Path"></path>
                        <path d="M7.84671875,8.48289063 C8.151875,8.78796875 8.64640625,8.78796875 8.95164062,8.48289063 C9.25671875,8.1778125 9.25671875,7.683125 8.95164062,7.37796875 L7.29382812,5.72015625 C6.98867187,5.41507813 6.49414062,5.41507813 6.18890625,5.72015625 C5.88382812,6.02523438 5.88382812,6.51992188 6.18890625,6.82507813 L7.84671875,8.48289063 Z" id="Path"></path>
                        <circle id="Oval" cx="20" cy="39.21875" r="1"></circle>
                        <path d="M8.671875,18.828125 L8.671875,24.6875 C8.671875,28.9697656 12.1182031,31.4289844 13.359375,32.175625 L13.359375,39.21875 C13.359375,39.6502344 13.7092188,40 14.140625,40 L16.484375,40 C16.9157813,40 17.265625,39.6502344 17.265625,39.21875 C17.265625,38.7872656 16.9157813,38.4375 16.484375,38.4375 L14.921875,38.4375 L14.921875,31.71875 C14.921875,31.4239844 14.7545312,31.1535938 14.4914063,31.0207031 C14.4488281,30.9992188 10.234375,28.8224219 10.234375,24.6875 L10.234375,18.828125 C10.234375,17.9665625 10.9353125,17.265625 11.796875,17.2648438 L20.3121094,17.2648438 C19.9492188,19.0464063 18.3707813,20.390625 16.484375,20.390625 L14.140625,20.390625 C13.7092188,20.390625 13.359375,20.7403906 13.359375,21.171875 C13.359375,21.6033594 13.7092188,21.953125 14.140625,21.953125 C17.586875,21.953125 20.390625,24.756875 20.390625,28.203125 C20.390625,28.6346094 20.7404688,28.984375 21.171875,28.984375 C21.6032813,28.984375 21.953125,28.6346094 21.953125,28.203125 C21.953125,26.0492188 23.7054688,24.296875 25.859375,24.296875 C26.2907813,24.296875 26.640625,23.9471094 26.640625,23.515625 C26.640625,23.0841406 26.2907813,22.734375 25.859375,22.734375 C23.9761719,22.734375 22.3123438,23.69125 21.3282813,25.1442188 C20.7089844,23.6946094 19.664375,22.4684375 18.3513281,21.6249219 C19.7105469,21.1296875 20.8192187,20.109375 21.4322656,18.8110156 C21.985625,19.3070313 22.7158594,19.60625 23.5157031,19.60625 C23.7159375,19.60625 23.9207031,19.609375 24.1090625,19.609375 C24.4775,19.609375 24.8328125,19.600625 25.1599219,19.5353906 C25.48125,20.9188281 26.7232813,21.953125 28.203125,21.953125 C28.7721094,21.953125 29.305625,21.7995313 29.765625,21.5327344 L29.765625,24.6875 C29.765625,28.8224219 25.5511719,30.9992187 25.51,31.02 C25.2453125,31.1523437 25.078125,31.4228125 25.078125,31.71875 L25.078125,38.4375 L23.515625,38.4375 C23.0842188,38.4375 22.734375,38.7872656 22.734375,39.21875 C22.734375,39.6502344 23.0842188,40 23.515625,40 L25.859375,40 C26.2907813,40 26.640625,39.6502344 26.640625,39.21875 L26.640625,32.175625 C27.8817969,31.4289844 31.328125,28.9697656 31.328125,24.6875 C31.328125,23.1323438 31.328125,17.3091406 31.328125,14.84375 C31.328125,13.120625 29.92625,11.71875 28.203125,11.71875 C27.6259375,11.71875 27.0850781,11.8766406 26.620625,12.1507031 C26.4463281,10.5914063 25.120625,9.375 23.515625,9.375 C22.9384375,9.375 22.3975781,9.53289063 21.933125,9.80695313 C21.7588281,8.24765625 20.433125,7.03125 18.828125,7.03125 C17.223125,7.03125 15.8974219,8.24765625 15.723125,9.80695313 C15.2586719,9.53289063 14.7178125,9.375 14.140625,9.375 C12.4175,9.375 11.015625,10.776875 11.015625,12.5 L11.015625,15.8020313 C9.66929688,16.1498437 8.671875,17.3746875 8.671875,18.828125 L8.671875,18.828125 Z M28.203125,13.28125 C29.0646875,13.28125 29.765625,13.9821875 29.765625,14.84375 L29.765625,18.828125 C29.765625,19.6896875 29.0646875,20.390625 28.203125,20.390625 C27.3415625,20.390625 26.640625,19.6896875 26.640625,18.828125 L26.640625,14.84375 C26.640625,13.9821875 27.3415625,13.28125 28.203125,13.28125 Z M23.515625,10.9375 C24.3771875,10.9375 25.078125,11.6384375 25.078125,12.5 L25.078125,17.65625 C25.078125,17.8778125 25.0335156,17.94 25.0330469,17.9404688 C24.915625,18.0569531 24.2372656,18.0515625 23.831875,18.0485156 C23.7284375,18.0476563 23.6228125,18.046875 23.515625,18.046875 C22.6540625,18.046875 21.953125,17.3459375 21.953125,16.484375 L21.953125,12.5 C21.953125,11.6384375 22.6540625,10.9375 23.515625,10.9375 L23.515625,10.9375 Z M17.265625,10.15625 C17.265625,9.2946875 17.9665625,8.59375 18.828125,8.59375 C19.6896875,8.59375 20.390625,9.2946875 20.390625,10.15625 L20.390625,15.703125 L17.265625,15.703125 L17.265625,10.15625 Z M14.140625,10.9375 C15.0021875,10.9375 15.703125,11.6384375 15.703125,12.5 L15.703125,15.703125 L12.578125,15.703125 L12.578125,12.5 C12.578125,11.6384375 13.2790625,10.9375 14.140625,10.9375 Z" id="Shape"></path>
                    </g>
                </g>
            </g>
        </g>
    </g>
</svg>