<?xml version="1.0" encoding="UTF-8"?>
<svg width="26px" height="14px" viewBox="0 0 26 14" version="1.1" xmlns="http://www.w3.org/2000/svg" xmlns:xlink="http://www.w3.org/1999/xlink">
    <title>send</title>
    <g id="Web-App" stroke="none" stroke-width="1" fill="none" fill-rule="evenodd">
        <g id="dashboard/send/step3_complete" transform="translate(-254.000000, -332.000000)" fill="#F7577D" fill-rule="nonzero">
            <g id="icon/send_sms" transform="translate(243.500000, 332.500000)">
                <g id="send" transform="translate(11.500000, 0.500000)">
                    <path d="M22.1415938,0 L9.71728125,0 C8.77734375,0 7.95407813,0.6675 7.75978125,1.58789062 L6.04003125,9.75782813 C6.01364063,9.8833125 6,10.0122188 6,10.1416406 C6,11.1665156 6.83348438,12 7.85840625,12 L20.2827188,12 C21.2226562,12 22.0459219,11.3325 22.2402188,10.4121094 L23.9599688,2.24217187 C23.9863594,2.1166875 24,1.98778125 24,1.85835938 C24,0.833484375 23.1665156,0 22.1415938,0 Z M9.71728125,0.999984375 L22.1264063,0.999984375 C20.3895469,2.20579687 16.5696563,4.85582813 15.1425937,5.8335 C14.9492344,5.96582812 14.5507969,6.09520312 14.3251875,5.88182812 C13.2984375,4.91610937 10.5893438,2.32340625 9.31110938,1.0981875 C9.43757813,1.04067187 9.57215625,0.999984375 9.71728125,0.999984375 Z M22.9814531,2.03517188 L21.2617031,10.2055781 C21.1645312,10.6660312 20.7529219,11.0000156 20.2827187,11.0000156 L7.85840625,11.0000156 C7.38525,11.0000156 6.99998438,10.61475 6.99998438,10.1415937 C6.99998438,10.0820156 7.0063125,10.0229531 7.01854688,9.96482812 L8.71378125,1.91067187 C10.0319531,3.17329687 12.6387187,5.66807812 13.639125,6.60984375 C13.9159687,6.87060937 14.2660781,7.00875 14.6513437,7.00875 C15.0077812,7.00875 15.3730312,6.88767187 15.708,6.65864062 C17.2122187,5.62785937 21.374625,2.73932812 22.9560469,1.6411875 C22.9751719,1.71225 23.0000156,1.78139063 23.0000156,1.85835938 C23.0000156,1.91798438 22.9936406,1.97704687 22.9814531,2.03517188 Z" id="Shape"></path>
                    <path d="M4.5,9.99998438 L0.500015625,9.99998438 C0.223640625,9.99998438 0,10.223625 0,10.5 C0,10.776375 0.223640625,11.0000156 0.500015625,11.0000156 L4.5,11.0000156 C4.776375,11.0000156 5.00001562,10.776375 5.00001562,10.5 C5.00001562,10.223625 4.776375,9.99998438 4.5,9.99998438 Z" id="Path"></path>
                    <path d="M5.00001562,6.99998438 L0.500015625,6.99998438 C0.223640625,6.99998438 0,7.223625 0,7.5 C0,7.776375 0.223640625,8.00001562 0.500015625,8.00001562 L5.00001562,8.00001562 C5.27639063,8.00001562 5.50003125,7.776375 5.50003125,7.5 C5.50003125,7.223625 5.27639063,6.99998438 5.00001562,6.99998438 Z" id="Path"></path>
                    <path d="M5.49998437,3.99998437 L0.500015625,3.99998437 C0.223640625,3.99998437 0,4.223625 0,4.5 C0,4.776375 0.223640625,5.00001562 0.500015625,5.00001562 L5.50003125,5.00001562 C5.77640625,5.00001562 6.00004687,4.776375 6.00004687,4.5 C6.00004687,4.223625 5.77635937,3.99998437 5.49998437,3.99998437 Z" id="Path"></path>
                    <path d="M0.500015625,2.00001563 L6,2.00001563 C6.276375,2.00001563 6.50001563,1.776375 6.50001563,1.5 C6.50001563,1.223625 6.276375,0.999984375 6,0.999984375 L0.500015625,0.999984375 C0.223640625,0.999984375 0,1.223625 0,1.5 C0,1.776375 0.223640625,2.00001563 0.500015625,2.00001563 Z" id="Path"></path>
                </g>
            </g>
        </g>
    </g>
</svg>