<?xml version="1.0" encoding="UTF-8"?>
<svg width="21px" height="19px" viewBox="0 0 21 19" version="1.1" xmlns="http://www.w3.org/2000/svg" xmlns:xlink="http://www.w3.org/1999/xlink">
    <title>paper-plane (1)</title>
    <g id="Web-App" stroke="none" stroke-width="1" fill="none" fill-rule="evenodd">
        <g id="dashboard/send/step3" transform="translate(-256.000000, -327.000000)" fill="#F7577D" fill-rule="nonzero">
            <g id="Group" transform="translate(243.500000, 327.500000)">
                <g id="paper-plane-(1)" transform="translate(13.045455, 0.000000)">
                    <path d="M6.84317719,13.773947 L6.84317719,17.401222 C6.84317719,17.6546151 7.00584929,17.8790713 7.24672912,17.9588432 C7.30694908,17.9783951 7.3687332,17.98778 7.42973523,17.98778 C7.61274134,17.98778 7.78949084,17.9017515 7.90210998,17.7484644 L10.0238859,14.8610346 L6.84317719,13.773947 Z" id="Path"></path>
                    <path d="M18.5235031,0.108708758 C18.3436253,-0.0187698574 18.1074379,-0.0359755601 17.9119185,0.0664765784 L0.315177189,9.25588595 C0.107144603,9.3645947 -0.0156415479,9.58670468 0.00156415479,9.82054582 C0.0195519348,10.055169 0.175185336,10.2553809 0.396513238,10.3312424 L5.28840733,12.0033238 L15.7064603,3.09546232 L7.64480652,12.8080815 L15.8433238,15.6102648 C15.9043259,15.6305988 15.9684562,15.6415479 16.0325866,15.6415479 C16.1389491,15.6415479 16.2445295,15.612611 16.3375967,15.5563014 C16.4861914,15.4655804 16.5870794,15.3130754 16.612888,15.1418004 L18.7636008,0.673368635 C18.795666,0.454386965 18.7033809,0.23696945 18.5235031,0.108708758 Z" id="Path"></path>
                </g>
            </g>
        </g>
    </g>
</svg>