<?xml version="1.0" encoding="UTF-8"?>
<svg width="44px" height="17px" viewBox="0 0 44 17" version="1.1" xmlns="http://www.w3.org/2000/svg" xmlns:xlink="http://www.w3.org/1999/xlink">
    <title>icons/logo</title>
    <g id="Web-App" stroke="none" stroke-width="1" fill="none" fill-rule="evenodd">
        <g id="dashboard/receive/redeem" transform="translate(-138.000000, -21.000000)">
            <g id="header/logged_in" transform="translate(-1.000000, 20.000000)">
                <g id="icon/logo" transform="translate(139.000000, 1.500000)">
                    <g id="Group-Copy">
                        <path d="M7.766,16.082 C10.0393333,16.082 11.8396667,15.4036667 13.167,14.047 C14.4943333,12.6903333 15.158,10.6406667 15.158,7.898 L15.158,7.898 L7.37,7.898 L7.37,10.516 L11.44,10.516 C11.4253333,11.2786667 11.0293333,11.9056667 10.252,12.397 C9.47466667,12.8883333 8.646,13.134 7.766,13.134 C6.50466667,13.134 5.434,12.661 4.554,11.715 C3.674,10.769 3.234,9.636 3.234,8.316 C3.234,6.996 3.67033333,5.86666667 4.543,4.928 C5.41566667,3.98933333 6.49,3.52 7.766,3.52 C9.07133333,3.52 10.1786667,4.03333333 11.088,5.06 L11.088,5.06 L13.464,3.014 C12.7893333,2.23666667 11.957,1.628 10.967,1.188 C9.977,0.748 8.91,0.528 7.766,0.528 C5.59533333,0.528 3.75833333,1.287 2.255,2.805 C0.751666667,4.323 0,6.16 0,8.316 C0,10.4573333 0.751666667,12.287 2.255,13.805 C3.75833333,15.323 5.59533333,16.082 7.766,16.082 Z" id="Path" fill="#040F0F" fill-rule="nonzero"></path>
                        <path d="M20.174,15.862 L20.174,5.588 L17.638,5.588 C17.3618576,5.588 17.138,5.81185763 17.138,6.088 L17.138,15.362 C17.138,15.6381424 17.3618576,15.862 17.638,15.862 L20.174,15.862 L20.174,15.862 Z" id="Path" fill="#040F0F" fill-rule="nonzero"></path>
                        <path d="M24.5977062,4.44210864 C25.0398144,4.34338428 25.5295194,3.99607397 25.896186,3.64407397 C26.2628527,3.29207397 26.4860908,2.81967212 26.5279304,2.3798833 C26.56977,1.94009448 26.4687243,1.47180339 26.1020576,1.12713672 C25.735391,0.782470052 25.4322883,0.710022461 24.8874885,0.710022461 C24.3426887,0.710022461 23.8093025,1.02746631 23.4304573,1.42974902 C23.0516121,1.83203174 22.8177253,2.29071094 22.7402412,2.69738818 C22.6627571,3.10406543 22.5660745,3.89794971 22.8992683,4.27481128 C23.2324622,4.65167285 24.1555981,4.54083301 24.5977062,4.44210864 Z" id="Path" fill="#F7577D" fill-rule="nonzero"></path>
                        <path d="M18.4941031,4.44210864 C18.9362112,4.34338428 19.4259162,3.99607397 19.7925829,3.64407397 C20.1592495,3.29207397 20.3824877,2.81967212 20.4243273,2.3798833 C20.4661669,1.94009448 20.3651211,1.47180339 19.9984545,1.12713672 C19.6317878,0.782470052 19.3286852,0.710022461 18.7838854,0.710022461 C18.2390856,0.710022461 17.7056993,1.02746631 17.3268541,1.42974902 C16.9480089,1.83203174 16.7141222,2.29071094 16.636638,2.69738818 C16.5591539,3.10406543 16.4624713,3.89794971 16.7956651,4.27481128 C17.128859,4.65167285 18.0519949,4.54083301 18.4941031,4.44210864 Z" id="Path-Copy" fill="#F7577D" fill-rule="nonzero" transform="translate(18.497198, 2.623735) scale(-1, 1) translate(-18.497198, -2.623735) "></path>
                        <path d="M26.026,15.362 L26.026,6.088 C26.026,5.81185763 25.8021424,5.588 25.526,5.588 L22.99,5.588 L22.99,5.588 L22.99,15.862 L25.526,15.862 C25.8021424,15.862 26.026,15.6381424 26.026,15.362 Z" id="Path" fill="#040F0F" fill-rule="nonzero"></path>
                        <path d="M32.956,15.862 L32.956,8.008 L35.024,8.008 L35.024,5.588 L32.956,5.588 L32.956,4.884 C32.956,3.57866667 33.4766667,2.926 34.518,2.926 L34.518,2.926 L35.64,2.926 L35.64,-2.84217094e-14 L34.518,-2.84217094e-14 C33.0366667,-2.84217094e-14 31.8926667,0.421666667 31.086,1.265 C30.2793333,2.10833333 29.876,3.31466667 29.876,4.884 L29.876,4.884 L29.876,5.588 L27.94,5.588 L27.94,8.008 L29.876,8.008 L29.876,15.862 L32.956,15.862 Z" id="Path" fill="#040F0F" fill-rule="nonzero"></path>
                        <polygon id="Path" fill="#040F0F" fill-rule="nonzero" points="40.92 15.862 40.92 8.008 43.076 8.008 43.076 5.588 40.92 5.588 40.92 1.65 37.884 1.65 37.884 5.588 36.014 5.588 36.014 8.008 37.884 8.008 37.884 15.862"></polygon>
                    </g>
                </g>
            </g>
        </g>
    </g>
</svg>